<?xml version="1.0" encoding="UTF-8"?><svg id="Capa_2" xmlns="http://www.w3.org/2000/svg" viewBox="0 0 589 444.06"><defs><style>.cls-1{fill:none;}.cls-2{fill:#e27d6c;}</style></defs><g id="Layer_2"><path class="cls-2" d="M515.29,368.06c0-40.66-32.96-73.61-73.61-73.61v147.22c40.66,0,73.61-32.96,73.61-73.61Z"/><path class="cls-2" d="M515.29,368.06c0,40.65,32.96,73.61,73.61,73.61v-147.22c-40.66,0-73.61,32.96-73.61,73.61Z"/><path class="cls-2" d="M73.61,368.06C73.61,327.41,40.66,294.45,0,294.45v147.22c40.66,0,73.61-32.96,73.61-73.61Z"/><circle class="cls-2" cx="147.23" cy="368.06" r="73.61"/><path class="cls-2" d="M147.23,294.45c40.65,0,73.61-32.96,73.61-73.61s-32.96-73.61-73.61-73.61v147.22Z"/><path class="cls-2" d="M294.45,294.45h0c-40.66,0-73.61,32.96-73.61,73.61s32.96,73.61,73.61,73.61h147.22c0-40.66-32.96-73.61-73.61-73.61s-73.61,32.96-73.61,73.61v-147.22c0,40.65,32.96,73.61,73.61,73.61s73.61-32.96,73.61-73.61h147.22c0-40.66-32.96-73.61-73.61-73.61s-73.61,32.96-73.61,73.61c0-40.65-32.96-73.61-73.61-73.61s-73.61,32.96-73.61,73.61V147.23c0,40.65,32.96,73.61,73.61,73.61s73.61-32.96,73.61-73.61c0,40.65,32.96,73.61,73.61,73.61s73.61-32.96,73.61-73.61H294.45c-40.66,0-73.61,32.96-73.61,73.61s32.96,73.61,73.61,73.61Z"/><path class="cls-2" d="M73.61,220.84C32.96,220.84,0,253.79,0,294.45H147.23c0-40.66-32.96-73.61-73.61-73.61Z"/><path class="cls-2" d="M515.29,73.61c0-40.65-32.96-73.61-73.61-73.61V147.22c40.66,0,73.61-32.96,73.61-73.61Z"/><path class="cls-2" d="M515.29,73.61c0,40.66,32.96,73.61,73.61,73.61V0c-40.66,0-73.61,32.96-73.61,73.61Z"/><circle class="cls-2" cx="368.06" cy="73.61" r="73.61"/><path class="cls-2" d="M220.84,73.61c40.66,0,73.61-32.96,73.61-73.61H147.23c0,40.66,32.96,73.61,73.61,73.61Z"/><path class="cls-2" d="M0,0H0V147.22c40.66,0,73.61-32.96,73.61-73.61S40.66,0,0,0"/><path class="cls-2" d="M73.61,73.61c0,40.65,32.96,73.61,73.61,73.61H0C0,187.88,32.96,220.84,73.61,220.84s73.61-32.96,73.61-73.61h147.22c0-40.66-32.96-73.61-73.61-73.61s-73.61,32.96-73.61,73.61V0c-40.66,0-73.61,32.96-73.61,73.61Z"/><rect id="Rectángulo_279" class="cls-1" x="1" y=".06" width="588" height="444"/></g></svg>