<svg xmlns="http://www.w3.org/2000/svg" xmlns:xlink="http://www.w3.org/1999/xlink" width="157.201" height="58.031" viewBox="0 0 157.201 58.031">
  <defs>
    <clipPath id="clip-path">
      <rect id="Rectángulo_278" data-name="Rectángulo 278" width="157.201" height="58.031" fill="#e27d6c"/>
    </clipPath>
  </defs>
  <g id="Grupo_2108" data-name="Grupo 2108" transform="translate(0 0)">
    <g id="Grupo_2107" data-name="Grupo 2107" transform="translate(0 0)" clip-path="url(#clip-path)">
      <path id="Trazado_33" data-name="Trazado 33" d="M5.6,58.031a22.413,22.413,0,0,1-3.1-.183A24.7,24.7,0,0,1,0,57.362l.183-.608a14.576,14.576,0,0,0,1.947.4,14.786,14.786,0,0,0,2.008.152,8.214,8.214,0,0,0,3.832-.881,7.89,7.89,0,0,0,3.042-3.194,23.229,23.229,0,0,0,2.251-6.691l9-42.945c.04-.2.091-.416.152-.639a2.133,2.133,0,0,0,.091-.517A1.437,1.437,0,0,0,21.29.913a13.441,13.441,0,0,0-3.164-.3h-.79L17.519,0H40.938l-.183.608h-.791a11.488,11.488,0,0,0-3.65.548,3.191,3.191,0,0,0-2.068,2.676L26.1,43.371a17.456,17.456,0,0,1-4.258,8.759,17.25,17.25,0,0,1-7.33,4.562A29.37,29.37,0,0,1,5.6,58.031" transform="translate(0 0)" fill="#e27d6c"/>
      <path id="Trazado_34" data-name="Trazado 34" d="M74.76,50.478A8.126,8.126,0,0,1,71.636,50a3.01,3.01,0,0,1-1.525-1.25,3.463,3.463,0,0,1-.423-1.691q0-.221.074-.9t.184-1.36c.074-.453.122-.741.147-.864H69.8a11.619,11.619,0,0,1-1.948,3.823,6.859,6.859,0,0,1-2.7,2.058,8.8,8.8,0,0,1-3.363.625,5.1,5.1,0,0,1-2.609-.57,3.22,3.22,0,0,1-1.36-1.507,4.993,4.993,0,0,1-.4-2,10.373,10.373,0,0,1,.221-2.021q.221-1.1.368-2.022l1.58-8.38q.184-.918.257-1.4a5.27,5.27,0,0,0,.074-.772,1.087,1.087,0,0,0-.221-.753q-.221-.239-1.286-.239h-.919l.074-.368H67.52L64.652,43.935q-.147.662-.257,1.324t-.165,1.213q-.055.551-.055.956a1.473,1.473,0,0,0,.331,1.047,1.2,1.2,0,0,0,.919.349,2.282,2.282,0,0,0,1.452-.588,6.277,6.277,0,0,0,1.341-1.617,14.191,14.191,0,0,0,1.121-2.334,20.46,20.46,0,0,0,.828-2.775l2.462-11.1h7.13l-3.2,14.85c-.074.368-.142.723-.2,1.066s-.1.656-.129.937-.037.558-.037.827a1.6,1.6,0,0,0,.313,1.066,1.115,1.115,0,0,0,.9.368,3.507,3.507,0,0,0,1.893-.7,7.694,7.694,0,0,0,1.71-1.507l.221.258a10.319,10.319,0,0,1-2.426,2,7.732,7.732,0,0,1-4.043.9" transform="translate(-23.379 -12.383)" fill="#e27d6c"/>
      <path id="Trazado_35" data-name="Trazado 35" d="M102.449,33.244q.073-.441.128-.828a4.7,4.7,0,0,0,.056-.643,1.749,1.749,0,0,0-.2-.937q-.2-.311-1.268-.312h-.992l.074-.368h9.042l-1.139,6.4h.221a14.1,14.1,0,0,1,1.507-3.712,6.288,6.288,0,0,1,2.3-2.279,6.872,6.872,0,0,1,3.4-.772,6.282,6.282,0,0,1,2.977.7,5.1,5.1,0,0,1,2.113,2.169,7.96,7.96,0,0,1,.791,3.785,14.75,14.75,0,0,1-.5,3.713,16,16,0,0,1-1.488,3.713A13.794,13.794,0,0,1,117,47.1a11.288,11.288,0,0,1-3.419,2.279,10.785,10.785,0,0,1-4.337.845,6.063,6.063,0,0,1-1.948-.276,4.487,4.487,0,0,1-1.4-.753,8.188,8.188,0,0,1-.129.864q-.092.459-.2,1.084l-.882,4.484q-.11.588-.147.9a5.1,5.1,0,0,0-.037.606,1,1,0,0,0,.4.938,3.049,3.049,0,0,0,1.433.239h1.728l-.037.368H96.972Zm5.66,16.467a3.2,3.2,0,0,0,2.113-.827,7.727,7.727,0,0,0,1.746-2.26,18.794,18.794,0,0,0,1.341-3.235,24.268,24.268,0,0,0,.864-3.8,26.913,26.913,0,0,0,.294-3.915A11.435,11.435,0,0,0,114.229,33a2.461,2.461,0,0,0-.68-1.3,1.615,1.615,0,0,0-1.066-.368,1.9,1.9,0,0,0-1.232.515,5.571,5.571,0,0,0-1.121,1.36,11.325,11.325,0,0,0-.9,1.856,13.881,13.881,0,0,0-.606,2.04l-2.5,11.689a2.494,2.494,0,0,0,.864.662,2.552,2.552,0,0,0,1.122.257" transform="translate(-39.49 -12.131)" fill="#e27d6c"/>
      <path id="Trazado_36" data-name="Trazado 36" d="M149.34,44.392a6.787,6.787,0,0,1-3.97-.992,3.451,3.451,0,0,1-1.4-3.014,8.269,8.269,0,0,1,.056-.845q.055-.515.184-1.3t.349-1.93l1.617-8.012q.147-.625.239-1.232a7.761,7.761,0,0,0,.092-1.158,1.2,1.2,0,0,0-.312-.937,2.283,2.283,0,0,0-1.378-.276h-.809l.074-.368H154.3L151.214,38.7q-.148.735-.276,1.341a8.258,8.258,0,0,0-.165,1.1c-.024.331-.037.619-.037.864a1.451,1.451,0,0,0,.331.938,1.319,1.319,0,0,0,.992.312,2.742,2.742,0,0,0,1.691-.662,10.877,10.877,0,0,0,1.434-1.323l.257.331a9.541,9.541,0,0,1-2.26,1.948,7.238,7.238,0,0,1-3.841.845m1.323-23.12a3.821,3.821,0,0,1-2.187-.606,2.082,2.082,0,0,1-.9-1.856,3.3,3.3,0,0,1,.551-2.022,2.892,2.892,0,0,1,1.433-1.029,5.782,5.782,0,0,1,1.838-.294,4.323,4.323,0,0,1,2.224.57A2.091,2.091,0,0,1,154.6,18a2.776,2.776,0,0,1-1.213,2.426,4.645,4.645,0,0,1-2.72.845" transform="translate(-58.63 -6.298)" fill="#e27d6c"/>
      <path id="Trazado_37" data-name="Trazado 37" d="M173.275,47.372a7.066,7.066,0,0,1-2.665-.5,4.518,4.518,0,0,1-1.966-1.47A3.878,3.878,0,0,1,167.908,43a9.545,9.545,0,0,1,.056-.974q.055-.533.147-1.066t.165-.974l2.684-12.314h-2.867l.036-.221a11.918,11.918,0,0,0,2.7-.349,19.332,19.332,0,0,0,3.033-.993,18.4,18.4,0,0,0,2.867-1.488,9.636,9.636,0,0,0,2.169-1.838h.368l-.956,4.521h4.448l-.074.368h-4.521l-3.235,14.408c-.074.392-.141.748-.2,1.066s-.1.606-.129.864-.037.5-.037.717A1.457,1.457,0,0,0,175,45.883a1.614,1.614,0,0,0,1.1.386,4.609,4.609,0,0,0,2.169-.7,10.783,10.783,0,0,0,2.242-1.654l.221.294a13.912,13.912,0,0,1-3.033,2.206,9.164,9.164,0,0,1-4.429.956" transform="translate(-68.377 -9.277)" fill="#e27d6c"/>
      <path id="Trazado_38" data-name="Trazado 38" d="M203.451,50.225a12.937,12.937,0,0,1-4.925-.845,6.475,6.475,0,0,1-3.161-2.646,8.762,8.762,0,0,1-1.1-4.631,12.689,12.689,0,0,1,.441-3.2,12.891,12.891,0,0,1,1.4-3.308,11.307,11.307,0,0,1,2.518-2.922,12.23,12.23,0,0,1,3.786-2.095,15.524,15.524,0,0,1,5.2-.79,7.8,7.8,0,0,1,4.632,1.176,3.784,3.784,0,0,1,1.617,3.235,4.829,4.829,0,0,1-1.434,3.492,9.289,9.289,0,0,1-3.932,2.26,19.023,19.023,0,0,1-5.734.79h-1.433a5.98,5.98,0,0,0-.055.7q-.019.478-.037.937c-.013.307-.019.521-.019.644a15.876,15.876,0,0,0,.4,4.043,3.9,3.9,0,0,0,1.194,2.095,2.9,2.9,0,0,0,1.856.625,4.341,4.341,0,0,0,3.547-1.654,12.164,12.164,0,0,0,2.113-4.263,1.08,1.08,0,0,1,.607.5,2.522,2.522,0,0,1,.238,1.268,3.431,3.431,0,0,1-.827,2.095,6.11,6.11,0,0,1-2.536,1.783,11.354,11.354,0,0,1-4.356.717m-1.544-9.851a4.479,4.479,0,0,0,2.426-.643A5.718,5.718,0,0,0,206.078,38a7.948,7.948,0,0,0,1.066-2.481,11.792,11.792,0,0,0,.349-2.867,3.206,3.206,0,0,0-.386-1.82,1.337,1.337,0,0,0-1.158-.533,1.989,1.989,0,0,0-1.341.643,6.653,6.653,0,0,0-1.305,1.93,17.531,17.531,0,0,0-1.121,3.161,35.566,35.566,0,0,0-.828,4.337Z" transform="translate(-79.109 -12.131)" fill="#e27d6c"/>
      <path id="Trazado_39" data-name="Trazado 39" d="M232.253,33.538q.11-.551.2-1.029a5.526,5.526,0,0,0,.092-1.03,1.057,1.057,0,0,0-.221-.681q-.221-.275-.992-.275h-1.066l.073-.368h9.336l-.918,6.175h.11a13.986,13.986,0,0,1,1.838-3.988,5.792,5.792,0,0,1,2.334-1.985,7.049,7.049,0,0,1,2.849-.57,5.636,5.636,0,0,1,3.382.827,2.987,2.987,0,0,1,1.1,2.555,4.167,4.167,0,0,1-.643,2.407,3.818,3.818,0,0,1-1.819,1.4,7.767,7.767,0,0,1-2.83.46q.073-.882.11-1.618c.024-.49.037-.931.037-1.323a7.821,7.821,0,0,0-.22-2.15,1.482,1.482,0,0,0-.643-.938,2.163,2.163,0,0,0-1.011-.221,2.274,2.274,0,0,0-1.342.5,5.615,5.615,0,0,0-1.341,1.525A14.592,14.592,0,0,0,239.4,35.8a25.961,25.961,0,0,0-1.085,3.694L236,49.858h-7.2Z" transform="translate(-93.173 -12.131)" fill="#e27d6c"/>
      <path id="Trazado_40" data-name="Trazado 40" d="M120.816,69.177h.317l-.467,2.21a1.162,1.162,0,0,1,.982-.59c.766,0,1.033.688.759,2.031-.266,1.272-.758,2-1.51,2a.731.731,0,0,1-.811-.651c-.047.209-.109.458-.148.589h-.309c.047-.2.11-.52.226-1.056Zm1.273,3.62c.248-1.2.056-1.694-.5-1.694-.66,0-1.016.705-1.218,1.686-.234,1.113-.1,1.731.557,1.731.52,0,.931-.6,1.164-1.724" transform="translate(-48.716 -28.171)" fill="#e27d6c"/>
      <path id="Trazado_41" data-name="Trazado 41" d="M125.343,72.015c.154,2.521.19,3.175.183,3.558h.008c.188-.455.85-1.929,1.609-3.558h.349l-1.938,4.171c-.517,1.1-.747,1.25-1.295,1.25a1.7,1.7,0,0,1-.33-.039l.072-.33a1.25,1.25,0,0,0,.328.039c.426,0,.6-.308.953-1.058L125,72.015Z" transform="translate(-50.467 -29.326)" fill="#e27d6c"/>
      <path id="Trazado_42" data-name="Trazado 42" d="M136.048,72.5c.218-1.043.445-2.013.57-2.545h-.008c-.36.785-1.661,3.4-2.454,4.993h-.362c-.06-1.312-.235-4.308-.241-5h-.016c-.094.616-.343,1.749-.53,2.654l-.49,2.347h-.331l1.132-5.315h.5c.13,2.1.275,4.455.251,4.861h.008c.166-.443,1.52-3.124,2.41-4.861H137l-1.132,5.315h-.34Z" transform="translate(-53.83 -28.359)" fill="#e27d6c"/>
      <path id="Trazado_43" data-name="Trazado 43" d="M140.773,73.914a4.588,4.588,0,0,0-.1.843c0,.558.178.884.643.884a.943.943,0,0,0,.845-.667h.317a1.293,1.293,0,0,1-1.21.973c-1.066,0-1.006-1.2-.8-2.116.294-1.32.825-1.923,1.529-1.923.82,0,1.068.68.818,1.716l-.071.289Zm1.708-.289a3.1,3.1,0,0,0,.1-.665c0-.419-.139-.752-.635-.752-.558,0-.915.621-1.108,1.417Z" transform="translate(-57.153 -29.283)" fill="#e27d6c"/>
      <path id="Trazado_44" data-name="Trazado 44" d="M148.648,69.216l-.983,4.617c-.071.324-.149.692-.188.948h-.318c.008-.094.039-.273.094-.536a1.06,1.06,0,0,1-.983.606c-.878,0-1-.961-.75-2.124.2-.915.663-1.913,1.541-1.913a.731.731,0,0,1,.8.565l.459-2.162Zm-2.81,3.558c-.2.9-.215,1.778.519,1.778.682,0,.992-.782,1.226-1.864.233-1.1.072-1.569-.549-1.569-.58,0-.977.666-1.2,1.655" transform="translate(-59.213 -28.187)" fill="#e27d6c"/>
      <path id="Trazado_45" data-name="Trazado 45" d="M151.4,70.875h.325l-.828,3.906h-.325Zm.358-1.659h.325l-.164.753H151.6Z" transform="translate(-61.318 -28.187)" fill="#e27d6c"/>
      <path id="Trazado_46" data-name="Trazado 46" d="M155.019,75.024c-.04.191-.14.658-.164.854h-.317a3.979,3.979,0,0,1,.093-.512,1.03,1.03,0,0,1-1,.582c-.713,0-.923-.611-.782-1.235a1.423,1.423,0,0,1,1.328-1.079c.266-.047.554-.062.842-.086l.1-.48c.093-.45.017-.854-.619-.854-.457,0-.673.249-.8.752h-.324a1.128,1.128,0,0,1,1.169-1.056c.654,0,1.053.368.888,1.145Zm-.053-1.187c-.256.024-.512.039-.745.078a1.094,1.094,0,0,0-1.045.845c-.085.4.016.883.535.883.612,0,.968-.48,1.177-1.448Z" transform="translate(-62.229 -29.284)" fill="#e27d6c"/>
      <path id="Trazado_47" data-name="Trazado 47" d="M160.883,73.552c-.008.717.323,1.109.961,1.109a.975.975,0,0,0,.991-.86c.108-.52-.047-1.016-.754-1.576s-1.008-1.024-.861-1.749a1.166,1.166,0,0,1,1.207-.957,1.107,1.107,0,0,1,1.138,1.383h-.324c.046-.539-.139-1.077-.852-1.077a.792.792,0,0,0-.837.706c-.1.549.085.89.739,1.419.868.7,1.033,1.226.876,1.908a1.311,1.311,0,0,1-1.354,1.11c-1.029,0-1.294-.715-1.263-1.416Z" transform="translate(-65.38 -28.31)" fill="#e27d6c"/>
      <path id="Trazado_48" data-name="Trazado 48" d="M168.793,73.957c-.2,1.031-.634,1.991-1.551,1.991-.978,0-1.116-.987-.858-2.139.3-1.356.891-1.9,1.521-1.9,1.01,0,1.092,1.013.889,2.047m-2.069-.13c-.234,1.058-.139,1.815.542,1.815.657,0,.992-.79,1.187-1.679.171-.794.187-1.739-.573-1.739-.468,0-.917.5-1.156,1.6" transform="translate(-67.71 -29.284)" fill="#e27d6c"/>
      <path id="Trazado_49" data-name="Trazado 49" d="M173.72,74.9c-.094.44-.18.839-.2,1.018h-.309a4.206,4.206,0,0,1,.092-.582,1.057,1.057,0,0,1-1,.651c-.37,0-.945-.138-.727-1.164l.593-2.812h.333l-.577,2.723c-.124.574-.047.947.458.947.473,0,.913-.326,1.123-1.318l.5-2.352h.333Z" transform="translate(-69.851 -29.326)" fill="#e27d6c"/>
      <path id="Trazado_50" data-name="Trazado 50" d="M177.124,73.3c.133-.61.21-1.016.266-1.321h.309c-.016.111-.047.335-.132.725a1.376,1.376,0,0,1,1.178-.779l-.088.381a1.46,1.46,0,0,0-1.279,1.314l-.483,2.266h-.325Z" transform="translate(-71.904 -29.289)" fill="#e27d6c"/>
      <path id="Trazado_51" data-name="Trazado 51" d="M182.3,74.845a1.338,1.338,0,0,1-1.255,1.1c-.922,0-1.1-.826-.833-2.087.264-1.221.772-1.944,1.534-1.944s.943.574.865,1.19h-.331c.054-.52-.085-.876-.574-.876-.406,0-.876.3-1.171,1.678-.231,1.091-.088,1.733.526,1.733.436,0,.721-.281.913-.79Z" transform="translate(-73.342 -29.284)" fill="#e27d6c"/>
      <path id="Trazado_52" data-name="Trazado 52" d="M185.314,73.914a4.593,4.593,0,0,0-.1.843c0,.558.179.884.643.884a.944.944,0,0,0,.845-.667h.317a1.292,1.292,0,0,1-1.21.973c-1.066,0-1.006-1.2-.8-2.116.295-1.32.825-1.923,1.529-1.923.82,0,1.068.68.818,1.716l-.071.289Zm1.708-.289a3.1,3.1,0,0,0,.1-.665c0-.419-.139-.752-.635-.752-.559,0-.915.621-1.108,1.417Z" transform="translate(-75.291 -29.283)" fill="#e27d6c"/>
    </g>
  </g>
</svg>
